# xmcd CD database file
#
# Track frame offsets:
#	182
#	17732
#	30317
#	44912
#	60162
#	77800
#	97127
#	115702
#	133880
#	153787
#	166927
#	182747
#	193592
#	209247
#	226462
#	242372
#	262810
#
# Disc length: 3726 seconds
#
# Revision: 0
# Processed by: cddbd v1.4PL0 Copyright (c) Steve Scherf et al.
# Submitted via: CDex 1.51
#
DISCID=df0e8c11
DTITLE=The Cheap Seats - A Little Less Talk ... and a Lot More Action
DYEAR=1900
DGENRE=Country
TTITLE0=The Cheap Seats
TTITLE1=Beer, Whiskey, Women
TTITLE2=Mr Blue
TTITLE3=I Need Somebody
TTITLE4=Little Rock
TTITLE5=Devil Comes Back to Georgia
TTITLE6=Theme - Twos Country
TTITLE7=The Case
TTITLE8=Take Good Care
TTITLE9=Make the World Go Away
TTITLE10=It Dosen't Matter Anymore
TTITLE11=My Home Town
TTITLE12=Tulsa Time
TTITLE13=Highways and Heartaches
TTITLE14=In Pictures
TTITLE15=Lipstick Promises
TTITLE16=A Little Less Talk ... and a Lot More Action
EXTD=
EXTT0=
EXTT1=
EXTT2=
EXTT3=
EXTT4=
EXTT5=
EXTT6=
EXTT7=
EXTT8=
EXTT9=
EXTT10=
EXTT11=
EXTT12=
EXTT13=
EXTT14=
EXTT15=
EXTT16=
PLAYORDER=
